<svg xmlns="http://www.w3.org/2000/svg" version="1.1" xmlns:xlink="http://www.w3.org/1999/xlink" xmlns:svgjs="http://svgjs.dev/svgjs" width="100%" height="100%" viewBox="0 0 1000 600"><rect width="1000" height="600" x="0" y="0" fill="#ffffff"/><g><rect width="333.3333333333333" height="333.3333333333333" rx="13.333333333333334" ry="13.333333333333334" y="193.9725465184053" fill="#66ff99" transform="matrix(0.7278006584321581,0,0,0.7278006584321581,0,37.52653959857531)" x="171.7503204345703"/><path d="M337.07923558057945 435.63922250286106L337.07923558057945 435.63922250286106Q316.5858772434863 435.63922250286106 300.8173765230008 427.04339720035813Q285.0488758025152 418.41910890016476 276.225346518489 402.2521262120135Q267.4018172344628 386.0566805261719 267.4018172344628 363.7132273392022L267.4018172344628 363.7132273392022Q267.4018172344628 349.1686355194042 271.8135818764759 335.33561864186635Q276.225346518489 321.5026017643284 285.13426479558643 310.23125467892726Q294.04318307268386 298.95990759352594 307.47771798255604 292.2995661339707Q320.9122528924282 285.63922467441546 338.7300894466231 285.63922467441546L338.7300894466231 285.63922467441546Q346.1020058484385 285.63922467441546 353.70162623177725 286.97698556586454Q361.27278361742555 288.2862834596233 368.3316070446465 290.8479532517599Q375.4188934695579 293.40962304389654 381.13995600532974 296.91057175981666L381.13995600532974 296.91057175981666L380.34299206999833 287.0623745589358L391.61433915539953 287.0623745589358L391.61433915539953 333.99785775041715L384.2139597558937 333.99785775041715Q383.4169958205623 321.0756567989724 377.35437731250556 312.1667385218749Q371.32022180213926 303.25782024477746 361.67126558509125 298.5329626281699Q352.0507723657336 293.8365680092527 340.1532393311434 293.8365680092527L340.1532393311434 293.8365680092527Q329.3088372110983 293.8365680092527 319.77373298481194 298.64681461893156Q310.2386287585255 303.4570612286103 302.9805643474717 312.1667385218749Q295.6940369387275 320.8764158151395 291.5953652713089 332.7739488497296Q287.49669360389026 344.6430188866295 287.49669360389026 358.98836972259465L287.49669360389026 358.98836972259465Q287.49669360389026 378.25781915900023 294.47012803804 393.42859692798726Q301.44356247218974 408.5993746969743 313.82496646751684 417.1951999994772Q326.23483346053433 425.8194882996706 342.430279146376 425.8194882996706L342.430279146376 425.8194882996706Q347.952100698315 425.8194882996706 353.9862562086813 424.794820382816Q360.04887471673806 423.7701524659613 366.0830302271043 421.4077236576575Q372.14564873516105 419.04529484935375 377.4682293032672 415.5728091311241L377.4682293032672 415.5728091311241L377.4682293032672 390.55383416125613Q377.4682293032672 385.62973556081573 377.4682293032672 380.620247967304Q377.4682293032672 375.6107603737924 377.4682293032672 370.686661773352L377.4682293032672 370.686661773352Q373.9672805873471 370.88590275718485 370.2955538852846 371.0851437410177Q366.59536418553165 371.28438472485055 363.122878467302 371.51208870637373L363.122878467302 371.51208870637373L363.122878467302 362.4893184385148L409.4321757095944 362.4893184385148L409.4321757095944 369.23504889114116Q403.6826501761322 369.23504889114116 400.6086464255682 372.22366364863393Q397.53464267500425 375.18381540843626 396.3107337743167 379.3963390666166Q395.0868248736292 383.58039972710645 394.88758388979636 387.5936824014538Q394.6883429059635 391.57850207811083 394.6883429059635 393.6278379118201L394.6883429059635 393.6278379118201L394.6883429059635 424.99406136664874L389.1380583563341 424.99406136664874Q385.8648136219373 424.99406136664874 380.11528808847504 426.2179702673363Q374.39422555270323 427.44187916802383 367.0223091508878 430.31664193475495L367.0223091508878 430.31664193475495Q360.64659766823655 432.76445973612994 352.2500133495665 434.21607261834066Q343.85342903089634 435.63922250286106 337.07923558057945 435.63922250286106Z " fill="#ffffff" transform="matrix(0.7278006584321581,0,0,0.7278006584321581,0,37.52653959857531)"/><path d="M704.774400704564 339.7375832544066L697.7756620079492 339.7375832544066Q695.8300666946046 321.44358287754113 685.02120384269 311.3102739538713Q674.2123409907755 301.2039871873311 657.2964706275292 301.2039871873311L657.2964706275292 301.2039871873311Q646.9740066039508 301.2039871873311 637.9486061226021 305.58157664235654Q628.8961834841236 309.95916609738197 622.0865998874174 318.1198575505775Q615.2770162907113 326.3075711609027 611.385825664022 337.7919879410619Q607.4946350373327 349.2493825640914 607.4946350373327 363.65219231426755L607.4946350373327 363.65219231426755Q607.4946350373327 381.94619269113304 614.4933737339475 395.9436700843624Q621.4921124305622 409.9681696347215 633.3548394105384 417.7505508881Q645.2445885476444 425.5329321414785 659.6203761406907 425.5329321414785L659.6203761406907 425.5329321414785Q672.2667456774309 425.5329321414785 684.5348050143539 419.77721267283397Q696.8028643512769 414.0485153613193 704.5852456046554 403.15858603801536L704.5852456046554 403.15858603801536L709.6383889879255 407.238931764613Q701.2615202776917 418.72334854477236 691.5335437109686 424.9384446846232Q681.8055671442455 431.1805629816038 672.1856792060415 433.3963798662464Q662.5387691107078 435.6392189080187 654.5672327574207 435.6392189080187L654.5672327574207 435.6392189080187Q639.975267907336 435.6392189080187 627.8152971989322 430.39692042484006Q615.6553264905283 425.1275997845317 606.8190811090881 415.6968669462362Q597.9558135705181 406.2661341079408 593.1999139156758 393.72785319971985Q588.4169921037035 381.16255013436916 588.4169921037035 366.5705852842845L588.4169921037035 366.5705852842845Q588.4169921037035 352.7622629909636 592.6054264588204 339.7375832544066Q596.7938608139373 326.68588136071975 605.1437073670413 316.17426223723277Q613.5205760772751 305.6896652708757 626.2750342425343 299.447546973895Q639.0024702506637 293.23245083404413 655.9453627710399 293.23245083404413L655.9453627710399 293.23245083404413Q666.8352920943438 293.23245083404413 676.5632686610669 296.1508438040611Q686.29124522779 299.06923677407804 695.2355792377493 305.0951778140204L695.2355792377493 305.0951778140204L694.262781581077 294.58355869053344L704.774400704564 294.58355869053344L704.774400704564 339.7375832544066ZM722.095603424757 432.53167083809313L722.095603424757 426.69488489805934Q728.1215444646994 426.69488489805934 730.445449977861 423.6684032995233Q732.7963776481524 420.66894385811696 733.1746878479695 415.31855674641923Q733.5529980477864 409.9681696347215 733.5529980477864 402.96943093810677L733.5529980477864 402.96943093810677L733.5529980477864 310.9319637540542Q733.5529980477864 307.8244156841288 733.6610866763056 304.9870891855012Q733.7691753048248 302.17678484400346 734.1474855046417 298.28559421731416L734.1474855046417 298.28559421731416Q730.6346050777695 298.47474931722275 727.2298132794165 298.6639044171312Q723.8250214810633 298.8800816741695 720.339163211321 299.06923677407804L720.339163211321 299.06923677407804L720.339163211321 290.8815231637527Q728.9051870214632 290.8815231637527 733.6610866763056 290.1249027641187Q738.416986331148 289.3412602073549 740.8489804728288 288.1793074507741Q743.2809746145095 286.99033253706347 744.6591046281287 285.6392246805741L744.6591046281287 285.6392246805741L750.306735468254 285.6392246805741L750.4958905681626 411.9137649480661Q750.4958905681626 415.8049555747554 750.306735468254 418.8044150161617Q750.0905582112158 421.8308966146978 749.5230929114903 425.1275997845317L749.5230929114903 425.1275997845317Q752.6306409814157 424.9384446846232 755.6571225799518 424.85737821323386Q758.6565820213581 424.74928958471475 761.7641300912835 424.56013448480616L761.7641300912835 424.56013448480616L761.7641300912835 432.53167083809313L722.095603424757 432.53167083809313ZM776.9505823982234 432.53167083809313L776.9505823982234 426.69488489805934Q782.9765234381658 426.69488489805934 785.3274511084572 423.6684032995233Q787.6513566216189 420.66894385811696 788.029666821436 415.31855674641923Q788.4349991783827 409.9681696347215 788.4349991783827 402.96943093810677L788.4349991783827 402.96943093810677L788.4349991783827 358.5990489309975Q788.4349991783827 355.4915008610721 788.6241542782911 352.6541743624445Q788.8133093781996 349.84387002094667 789.2186417351465 345.9526793942575L789.2186417351465 345.9526793942575Q785.7057613082743 346.14183449416595 782.3009695099212 346.3309895940744Q778.896177711568 346.54716685111276 775.3832972846958 346.73632195102124L775.3832972846958 346.73632195102124L775.3832972846958 338.5486083406959Q783.9493210948382 338.5486083406959 788.6241542782911 337.7919879410619Q793.2989874617442 337.00834538429814 795.7309816034251 335.8463926277173Q798.1629757451058 334.6574177140067 799.5140836015952 333.3063098575174L799.5140836015952 333.3063098575174L805.1617144417205 333.3063098575174L805.1617144417205 411.9137649480661Q805.1617144417205 415.8049555747554 805.0536258132013 418.8044150161617Q804.972559341812 421.8308966146978 804.3780718849566 425.1275997845317L804.3780718849566 425.1275997845317Q807.4856199548822 424.9384446846232 810.5121015534182 424.85737821323386Q813.5385831519543 424.74928958471475 816.6461312218797 424.56013448480616L816.6461312218797 424.56013448480616L816.6461312218797 432.53167083809313L776.9505823982234 432.53167083809313ZM795.6228929749059 314.0395118239797L795.6228929749059 314.0395118239797Q791.5425472483082 314.0395118239797 788.4349991783827 310.74280865414573Q785.3274511084572 307.419083327182 785.3274511084572 302.5550950438204L785.3274511084572 302.5550950438204Q785.3274511084572 297.69110676045887 788.516065649772 294.28631496210585Q791.7317023482167 290.8815231637527 795.8120480748144 290.8815231637527L795.8120480748144 290.8815231637527Q800.297726158359 290.8815231637527 803.324207756895 294.28631496210585Q806.3236671983013 297.69110676045887 806.3236671983013 302.5550950438204L806.3236671983013 302.5550950438204Q806.3236671983013 307.419083327182 803.1080304998568 310.74280865414573Q799.9194159585419 314.0395118239797 795.6228929749059 314.0395118239797ZM878.7160261489992 435.6392189080187L878.7160261489992 435.6392189080187Q865.2860140554953 435.6392189080187 854.4771512035807 429.3160341396486Q843.695310508796 422.9928493712786 837.4531922118152 411.4273661197299Q831.2380960719644 399.8348607110516 831.2380960719644 384.0809431043861L831.2380960719644 384.0809431043861Q831.2380960719644 370.4617759109737 837.3721257404259 358.5990489309975Q843.4791332517577 346.73632195102124 854.5852398320999 339.4403395259789Q865.6643242553123 332.1443571009366 880.256289105397 332.1443571009366L880.256289105397 332.1443571009366Q888.4440027157223 332.1443571009366 895.5238078837262 334.76550634252584Q902.6306352088602 337.3866555841152 908.0891109490769 342.73704269581293Q913.5205645321641 348.08742980751055 916.6551347592192 356.16705478931675Q919.7626828291448 364.24667977112284 919.7626828291448 375.1366090944268L919.7626828291448 375.1366090944268L851.2615145051361 376.2985618510076Q851.2615145051361 391.07968180100073 854.4771512035807 402.26685485273237Q857.6927879020252 413.454027904464 864.8806816985485 419.5880575729255Q872.0955976522015 425.722087241387 883.3638371753224 425.722087241387L883.3638371753224 425.722087241387Q889.4168003723946 425.722087241387 895.7399851407646 423.5873368281339Q902.0631699091346 421.4525864148807 907.4946234922218 417.7505508881Q912.9530992324385 414.0485153613193 916.2498024022725 409.5628372777747L916.2498024022725 409.5628372777747L920.9246355857256 413.454027904464Q915.682337102547 421.6417415147892 908.2782660489855 426.50572979815087Q900.874194995424 431.3697180815124 893.0918137420456 433.5044684947655Q885.309432488667 435.6392189080187 878.7160261489992 435.6392189080187ZM851.8560019619914 368.13787039781215L851.8560019619914 368.13787039781215L901.4686824522794 368.13787039781215Q901.4686824522794 361.1391317011974 899.4149985104157 354.5997696757891Q897.3883367256815 348.08742980751055 892.7135035422285 343.89899545239365Q888.0386703587754 339.7375832544066 880.4454442053054 339.7375832544066L880.4454442053054 339.7375832544066Q869.1772046821845 339.7375832544066 861.6920671572336 346.43907822259365Q854.1799074751531 353.1405731907807 851.8560019619914 368.13787039781215ZM976.7524122158643 432.53167083809313L937.0838855493379 432.53167083809313L937.0838855493379 426.69488489805934Q943.1098265892801 426.69488489805934 945.4337321024418 423.6684032995233Q947.7846597727332 420.66894385811696 948.1629699725502 415.31855674641923Q948.5412801723674 409.9681696347215 948.5412801723674 402.96943093810677L948.5412801723674 402.96943093810677L948.7574574294056 358.5990489309975Q948.7574574294056 355.4915008610721 948.8385239007948 352.38395279114667Q948.946612529314 349.2493825640914 949.5140778290395 345.9526793942575L949.5140778290395 345.9526793942575Q946.0282195592972 346.14183449416595 942.623427760944 346.3309895940744Q939.218635962591 346.54716685111276 935.7057555357187 346.73632195102124L935.7057555357187 346.73632195102124L935.7057555357187 338.5486083406959Q944.271779345861 338.5486083406959 948.6493688008865 337.7919879410619Q953.0269582559118 337.00834538429814 955.1617086691649 335.8463926277173Q957.2964590824181 334.6574177140067 958.6745890960372 333.3063098575174L958.6745890960372 333.3063098575174L964.3222199361626 333.3063098575174Q964.5113750360711 334.6574177140067 964.5924415074605 336.41385792744285Q964.7005301359795 338.17029814087897 964.889685235888 340.30504855413204Q965.0788403357965 342.43979896738523 965.0788403357965 345.1690368374937L965.0788403357965 345.1690368374937Q969.3753633194326 341.4670013107129 974.5365953312217 338.5486083406959Q979.6708051858811 335.6302153706791 985.4265246545258 333.9007973143727Q991.1552219660405 332.1443571009366 996.8028528061659 332.1443571009366L996.8028528061659 332.1443571009366Q1013.7187231694122 332.1443571009366 1021.5011044227906 342.73704269581293Q1029.2834856761692 353.3567504478189 1029.2834856761692 375.73109655128206L1029.2834856761692 375.73109655128206L1029.2834856761692 411.9137649480661Q1029.2834856761692 415.8049555747554 1029.2024192047797 418.8044150161617Q1029.0943305762605 421.8308966146978 1028.526865276535 425.1275997845317L1028.526865276535 425.1275997845317Q1031.6344133464606 424.9384446846232 1034.633872787867 424.85737821323386Q1037.660354386403 424.74928958471475 1040.7679024563283 424.56013448480616L1040.7679024563283 424.56013448480616L1040.7679024563283 432.53167083809313L1001.0723536326722 432.53167083809313L1001.0723536326722 426.69488489805934Q1007.1253168297442 426.69488489805934 1009.4492223429058 423.6684032995233Q1011.7731278560675 420.66894385811696 1012.1784602130143 415.31855674641923Q1012.5567704128314 409.9681696347215 1012.5567704128314 402.96943093810677L1012.5567704128314 402.96943093810677L1012.5567704128314 375.73109655128206Q1012.3676153129229 358.9773591308145 1007.0172282012251 350.43835747780196Q1001.6668410895275 341.8723336676597 990.1824243093681 342.06148876756816L990.1824243093681 342.06148876756816Q983.1836856127535 342.25064386747675 976.4821906445663 345.763524294349Q969.7536735192496 349.2493825640914 965.2950175928349 354.7078583043082L965.2950175928349 354.7078583043082Q965.4841726927434 356.27514341783586 965.4841726927434 358.22073873118046Q965.4841726927434 360.1663340445252 965.4841726927434 362.30108445777824L965.4841726927434 362.30108445777824L965.2950175928349 411.9137649480661Q965.2950175928349 415.8049555747554 965.1869289643157 418.8044150161617Q965.0788403357965 421.8308966146978 964.5113750360711 425.1275997845317L964.5113750360711 425.1275997845317Q967.6189231059965 424.9384446846232 970.6454047045326 424.85737821323386Q973.6448641459389 424.74928958471475 976.7524122158643 424.56013448480616L976.7524122158643 424.56013448480616L976.7524122158643 432.53167083809313ZM1090.0022727467992 435.6392189080187L1090.0022727467992 435.6392189080187Q1085.5165946632546 435.6392189080187 1080.8417614798016 434.3691775229186Q1076.1939504534782 433.12615829494854 1072.19467119827 429.4241227681677Q1068.1953919430616 425.722087241387 1065.8714864299 418.61525991625314Q1063.5475809167383 411.5084325911193 1063.5475809167383 399.8348607110516L1063.5475809167383 399.8348607110516L1063.9258911165552 343.4125966240576L1048.9556160666536 343.6287738810958L1048.9556160666536 335.251905170862Q1054.0087594499237 335.06275007095354 1059.2510579331024 331.46880317269193Q1064.5203785734107 327.8478341173006 1068.6817907713976 321.6327379774497Q1072.8702251265147 315.41764183759875 1074.4375102400422 308.0135707840373L1074.4375102400422 308.0135707840373L1081.0579387368398 308.0135707840373L1081.0579387368398 335.251905170862L1113.7277267067516 335.251905170862L1113.7277267067516 342.84513132433204L1081.0579387368398 343.223441524149L1080.652606379893 397.32180009798145Q1080.652606379893 406.0769790080323 1082.1118028649016 412.2110086764938Q1083.5709993499102 418.31801618782555 1086.894724676874 421.4525864148807Q1090.1914278467077 424.56013448480616 1095.4337263298862 424.56013448480616L1095.4337263298862 424.56013448480616Q1100.8922020701032 424.56013448480616 1105.6481017249457 421.4525864148807Q1110.4310235369178 418.31801618782555 1114.1330590636985 412.88656260473846L1114.1330590636985 412.88656260473846L1119.3753575468772 417.1560634312447Q1115.1058567203709 423.5873368281339 1110.917422365254 427.28937235491463Q1106.728988010137 430.9643857245656 1102.8377973834477 432.82891456652084Q1098.9466067567587 434.6664212513463 1095.6499035869247 435.1528200796825Q1092.326178259961 435.6392189080187 1090.0022727467992 435.6392189080187ZM1168.6097278373481 435.6392189080187L1168.6097278373481 435.6392189080187Q1158.8817512706248 435.6392189080187 1151.288525117155 433.0180696664293Q1143.6952989636848 430.39692042484006 1138.8313106803234 427.0731950978763L1138.8313106803234 427.0731950978763L1139.614953237087 433.88277869458256L1131.4272396267618 433.88277869458256L1130.2652868701812 400.4293481679069L1136.2912279101233 400.4293481679069Q1136.6965602670703 408.40088452119386 1140.776905993668 414.72406928956394Q1144.8572517202656 421.0472540579339 1151.288525117155 424.56013448480616Q1157.6927763569142 428.04599275454865 1165.0968474104757 428.04599275454865L1165.0968474104757 428.04599275454865Q1170.149990793746 428.04599275454865 1175.0139790771073 426.39764116963164Q1179.8779673604688 424.74928958471475 1183.2016926874326 421.3444977863616Q1186.4983958572666 417.9397059880085 1186.4983958572666 412.69740750482987L1186.4983958572666 412.69740750482987Q1186.4983958572666 407.238931764613 1183.282759158822 403.64498486635154Q1180.0671224603775 400.05103796808993 1174.8248239771988 397.32180009798145Q1169.5825254940203 394.592562227873 1163.529562296948 392.2686567147114L1163.529562296948 392.2686567147114Q1157.6927763569142 389.91772904442 1151.8559904168803 387.4046684313499Q1146.0192044768464 384.8645856611499 1141.0741497220956 381.35170523427763Q1136.1020728102148 377.86584696453525 1133.1836798401978 372.8127035812652Q1130.2652868701812 367.73253804086534 1130.2652868701812 360.35548914443365L1130.2652868701812 360.35548914443365Q1130.2652868701812 356.27514341783586 1131.8325719837085 351.4111551344743Q1133.3728349401063 346.54716685111276 1137.0748704668872 342.1695773960874Q1140.776905993668 337.7919879410619 1147.2081793905572 334.9546614424344Q1153.6124306303163 332.1443571009366 1163.529562296948 332.1443571009366L1163.529562296948 332.1443571009366Q1168.7988829372566 332.1443571009366 1175.2031341770157 333.9007973143727Q1181.6344075739048 335.6302153706791 1187.6603486138474 340.49420365404063L1187.6603486138474 340.49420365404063L1187.2820384140305 333.11715475760894L1195.4427298672258 333.11715475760894L1195.4427298672258 367.1650727411398L1189.227633727375 367.1650727411398Q1188.8223013704282 360.35548914443365 1186.1200856574496 354.03230437606356Q1183.390847787341 347.7091196076936 1178.1215271470328 343.5206852525767Q1172.879228663854 339.3322508974598 1164.5023599536203 339.3322508974598L1164.5023599536203 339.3322508974598Q1155.558025943661 339.3322508974598 1150.504882560391 343.8179289810043Q1145.451739177121 348.27658490741914 1145.451739177121 354.1133708474529L1145.451739177121 354.1133708474529Q1145.451739177121 360.1663340445252 1149.234841175291 364.13859114260373Q1153.044965330591 368.13787039781215 1159.0709063705333 371.0562633678291Q1165.0968474104757 373.97465633784594 1171.906431007182 376.7038942079544L1171.906431007182 376.7038942079544Q1179.3105020607434 379.81144227787985 1186.309240757358 383.51347780466057Q1193.3079794539726 387.18849117431154 1197.7936575375174 392.7550555430476Q1202.2523134639323 398.2945977546538 1202.2523134639323 407.04977666470455L1202.2523134639323 407.04977666470455Q1202.2523134639323 416.77775323142765 1197.307258709181 423.1820044711871Q1192.3351817973005 429.6132778680763 1184.6608891724413 432.63975946661236Q1176.959574390452 435.6392189080187 1168.6097278373481 435.6392189080187Z " fill="#66ff99" transform="matrix(0.7278006584321581,0,0,0.7278006584321581,0,37.52653959857531)"/></g></svg>